<svg width="25" height="25" viewBox="0 0 25 25" fill="none" xmlns="http://www.w3.org/2000/svg">
<path d="M25 12.5C25 19.4036 19.4036 25 12.5 25C5.59644 25 0 19.4036 0 12.5C0 5.59644 5.59644 0 12.5 0C19.4036 0 25 5.59644 25 12.5Z" fill="black"/>
<path d="M10.0947 18.7741L5.21966 13.7621C4.92678 13.461 4.92678 12.9728 5.21966 12.6717L6.2803 11.5812C6.57318 11.2801 7.04808 11.2801 7.34096 11.5812L10.625 14.9575L17.659 7.72583C17.9519 7.42472 18.4268 7.42472 18.7197 7.72583L19.7803 8.8163C20.0732 9.11741 20.0732 9.60563 19.7803 9.90677L11.1553 18.7742C10.8624 19.0753 10.3875 19.0753 10.0947 18.7741Z" fill="#FFC200"/>
</svg>
