<svg width="25" height="25" viewBox="0 0 25 25" fill="none" xmlns="http://www.w3.org/2000/svg">
<g clip-path="url(#clip0_59_2)">
<path d="M11.4583 7.29167H13.5417V9.375H11.4583V7.29167ZM11.4583 11.4583H13.5417V17.7083H11.4583V11.4583ZM12.5 2.08334C6.75 2.08334 2.08333 6.75 2.08333 12.5C2.08333 18.25 6.75 22.9167 12.5 22.9167C18.25 22.9167 22.9167 18.25 22.9167 12.5C22.9167 6.75 18.25 2.08334 12.5 2.08334ZM12.5 20.8333C7.90625 20.8333 4.16666 17.0938 4.16666 12.5C4.16666 7.90625 7.90625 4.16667 12.5 4.16667C17.0937 4.16667 20.8333 7.90625 20.8333 12.5C20.8333 17.0938 17.0937 20.8333 12.5 20.8333Z" fill="black"/>
</g>
<defs>
<clipPath id="clip0_59_2">
<rect width="25" height="25" fill="white"/>
</clipPath>
</defs>
</svg>
