<svg width="25" height="25" viewBox="0 0 25 25" fill="none" xmlns="http://www.w3.org/2000/svg">
<circle cx="12.5" cy="12.5" r="12.5" fill="#636363"/>
<path d="M15.8689 7.19717L12.617 10.4491L9.3651 7.19717C8.96607 6.79814 8.31885 6.79814 7.91982 7.19717L7.19717 7.91981C6.79814 8.31885 6.79814 8.96606 7.19717 9.3651L10.4491 12.617L7.19717 15.8689C6.79814 16.2679 6.79814 16.9151 7.19717 17.3142L7.91982 18.0368C8.31885 18.4358 8.96607 18.4358 9.3651 18.0368L12.617 14.7849L15.8689 18.0368C16.2679 18.4358 16.9151 18.4358 17.3142 18.0368L18.0368 17.3142C18.4358 16.9151 18.4358 16.2679 18.0368 15.8689L14.7849 12.617L18.0368 9.3651C18.4358 8.96606 18.4358 8.31885 18.0368 7.91981L17.3142 7.19717C16.9151 6.79814 16.2679 6.79814 15.8689 7.19717Z" fill="#E4E4E4"/>
</svg>
